<?xml version="1.0" standalone="no"?>
<!DOCTYPE svg PUBLIC "-//W3C//DTD SVG 20010904//EN"
 "http://www.w3.org/TR/2001/REC-SVG-20010904/DTD/svg10.dtd">
<svg version="1.0" xmlns="http://www.w3.org/2000/svg"
 width="259.000000pt" height="259.000000pt" viewBox="0 0 259.000000 259.000000"
 preserveAspectRatio="xMidYMid meet">
<metadata>
Created by potrace 1.14, written by Peter Selinger 2001-2017
</metadata>
<g transform="translate(0.000000,259.000000) scale(0.100000,-0.100000)"
fill="#000000" stroke="none">
<path d="M0 1344 l0 -1245 21 -50 c12 -27 25 -49 30 -49 4 0 -3 24 -16 52
l-24 53 46 47 c26 27 50 48 54 48 3 0 22 -44 41 -97 l35 -98 41 -3 c23 -2 42
-1 42 3 0 3 -13 32 -30 65 -40 80 -75 209 -61 223 17 17 26 0 51 -94 12 -47
34 -110 50 -140 26 -51 29 -54 69 -57 l41 -3 -34 63 c-65 117 -119 279 -98
292 5 3 26 -41 46 -98 21 -57 57 -138 82 -180 l44 -76 835 0 835 0 -10 25 c-5
14 -14 51 -20 83 -5 31 -17 93 -25 137 -28 143 -28 145 -17 145 15 0 27 -46
52 -190 28 -162 38 -200 54 -200 11 0 12 8 5 38 -27 107 -77 358 -73 362 11
10 23 -27 43 -134 12 -61 33 -146 47 -189 l26 -77 39 0 39 0 1 53 2 52 10 -53
10 -52 153 0 154 0 0 459 0 458 -61 43 -62 43 6 121 c6 126 24 236 38 236 5 0
24 -14 44 -31 l35 -31 0 158 -1 159 -18 -34 -19 -35 -18 35 -19 34 -5 -51 c-6
-62 -30 -100 -76 -121 -30 -15 -41 -15 -82 -4 -26 7 -76 19 -112 27 -146 31
-284 93 -406 180 -100 72 -213 137 -384 221 -232 115 -406 229 -501 330 -46
47 -53 71 -39 123 11 42 26 61 70 93 l25 18 -38 -4 c-20 -2 -37 -1 -37 0 0 2
9 21 20 42 29 58 74 91 122 91 35 0 39 2 28 15 -10 12 -46 15 -214 14 -110 0
-194 -3 -186 -6 8 -3 17 -9 20 -12 3 -3 45 -33 93 -65 83 -56 88 -62 83 -88
-3 -16 -1 -28 5 -28 5 0 2 -14 -7 -32 -9 -17 -18 -53 -20 -79 -3 -45 -46 -139
-62 -139 -15 1 -147 72 -185 100 -22 16 -61 37 -86 47 -52 19 -73 32 -67 42 8
13 -9 28 -89 79 -44 28 -98 65 -120 81 -101 74 -157 101 -212 101 l-53 0 0
-1246z m505 871 c1 -22 -3 -48 -9 -58 -9 -15 -7 -21 8 -32 10 -7 15 -18 11
-24 -10 -17 -62 -13 -69 5 -9 23 -7 82 3 88 4 3 11 20 15 37 9 46 38 35 41
-16z m732 -582 c7 -54 10 -99 9 -101 -2 -1 -18 5 -35 15 -31 17 -32 20 -27 63
7 57 25 120 34 120 4 0 13 -44 19 -97z m-17 -105 c22 -13 40 -29 40 -37 0 -10
-9 -7 -27 11 -16 14 -37 30 -48 36 -11 6 -16 12 -12 12 4 0 26 -10 47 -22z
m-22 -65 c-10 -12 -9 -15 7 -13 35 4 44 0 38 -15 -3 -9 -1 -15 6 -13 10 3 103
-123 96 -130 -1 -1 -44 2 -94 9 l-91 12 0 82 c0 83 7 99 38 87 10 -3 10 -7 0
-19z m-64 -120 l17 -33 -36 0 -35 0 0 56 0 57 19 -24 c10 -13 26 -39 35 -56z
m-264 29 c0 -15 -2 -15 -10 -2 -13 20 -13 33 0 25 6 -3 10 -14 10 -23z m164
-12 c14 -22 26 -41 26 -44 0 -2 -11 -6 -24 -8 -16 -3 -27 0 -30 9 -7 16 -8 83
-2 83 2 0 15 -18 30 -40z m795 -32 c1 -37 0 -37 -24 -26 -18 8 -24 17 -19 27
3 9 11 29 17 45 9 27 11 28 18 10 4 -10 8 -36 8 -56z m59 -50 c-3 -24 -5 -25
-22 -13 -17 13 -17 18 -5 67 l13 53 8 -40 c5 -22 8 -52 6 -67z m-945 22 c-4
-5 -23 -11 -42 -15 -31 -7 -33 -5 -26 11 5 11 8 29 8 41 -1 22 -1 22 34 -4 18
-14 30 -29 26 -33z m-86 13 c-3 -10 -5 -4 -5 12 0 17 2 24 5 18 2 -7 2 -21 0
-30z m-242 -10 c6 -18 -12 -34 -35 -30 -19 3 -26 37 -9 47 16 11 36 2 44 -17z
m795 -41 c0 -3 -10 2 -22 10 -13 9 -24 26 -26 39 -3 21 -1 20 22 -10 14 -19
26 -37 26 -39z m396 23 c10 -8 15 -14 9 -14 -5 0 -19 6 -29 14 -11 8 -15 15
-10 15 6 0 19 -7 30 -15z m-336 -44 c0 -21 -16 -2 -24 29 -7 24 -6 24 8 6 9
-11 16 -27 16 -35z m404 4 c11 -8 17 -17 14 -20 -3 -3 -16 3 -29 14 -27 23
-14 28 15 6z m-338 -27 c-10 -59 8 -64 43 -11 18 26 30 39 27 28 -20 -79 -20
-81 -1 -65 17 14 18 13 12 -9 l-6 -23 27 23 c15 13 37 35 50 49 l23 25 -6 -25
-6 -25 20 25 c11 14 21 28 21 32 0 10 40 -3 40 -13 0 -5 7 -9 16 -9 13 0 15
-7 10 -37 l-5 -38 15 33 c8 18 19 30 24 27 6 -4 8 -11 5 -16 -4 -5 3 -9 14 -9
12 0 21 -6 21 -14 0 -8 5 -16 11 -18 8 -3 8 -28 -2 -93 -7 -50 -13 -110 -13
-134 -1 -35 -8 -51 -39 -87 -21 -24 -42 -44 -46 -44 -4 0 -33 44 -66 98 -87
144 -134 212 -183 264 -43 46 -43 47 -27 72 23 35 28 33 21 -6z m-1446 -78 c0
-6 11 -15 25 -20 29 -11 32 -30 8 -59 -17 -20 -20 -20 -47 -6 -15 8 -35 15
-42 15 -21 0 -18 57 4 69 22 13 52 14 52 1z m2093 -210 c-9 -16 -21 -30 -25
-30 -5 0 1 14 14 30 12 17 23 30 25 30 2 0 -4 -13 -14 -30z m-85 -42 c-16 -25
-46 -42 -93 -53 -29 -6 -29 -6 10 22 34 24 80 50 94 52 2 1 -3 -9 -11 -21z
m-178 -43 c-13 -14 -28 -25 -34 -25 -6 1 3 12 19 25 39 32 45 32 15 0z m135
-69 c-21 -44 -45 -66 -45 -42 0 17 51 88 58 81 2 -2 -4 -19 -13 -39z m-65 -71
c0 -8 -4 -15 -10 -15 -5 0 -10 7 -10 15 0 8 5 15 10 15 6 0 10 -7 10 -15z
m124 -52 c-8 -21 -22 -54 -31 -73 -15 -32 -17 -33 -25 -14 -8 17 -2 31 29 72
21 29 39 52 40 52 1 0 -5 -17 -13 -37z m-119 -105 c7 -18 11 -35 9 -37 -7 -7
-31 22 -39 47 -10 35 14 27 30 -10z m45 6 c11 -29 3 -54 -11 -33 -9 15 -12 59
-4 59 3 0 10 -12 15 -26z m164 -94 c27 -106 45 -256 45 -370 0 -63 0 -64 -57
91 -33 87 -41 124 -47 212 -5 77 -3 115 6 141 7 20 16 36 19 36 3 0 19 -49 34
-110z m-70 -85 c7 -107 -2 -112 -24 -13 -11 46 -10 63 0 88 7 17 14 29 15 28
2 -2 6 -48 9 -103z m-974 -81 c0 -2 -6 -4 -14 -4 -8 0 -29 19 -48 42 l-33 43
48 -39 c26 -21 47 -40 47 -42z m500 -12 c11 -28 11 -35 -1 -46 -13 -12 -133
-66 -146 -66 -2 0 16 23 41 51 26 29 54 65 63 80 19 32 24 30 43 -19z m-442
-21 c49 -34 131 -71 182 -82 27 -6 52 -14 55 -19 5 -8 -110 -40 -147 -40 -22
0 -51 26 -143 128 l-29 32 28 0 c15 0 40 -8 54 -19z m477 -111 c0 -16 -107
-61 -208 -89 -117 -31 -127 -33 -127 -18 0 7 34 22 83 35 46 13 117 38 158 56
78 35 94 38 94 16z"/>
<path d="M1427 2514 c225 -116 303 -164 478 -294 106 -79 270 -164 434 -224
74 -27 142 -61 184 -90 l67 -47 0 180 0 179 -40 34 c-24 20 -42 45 -46 64 -5
26 -2 32 21 42 14 7 35 12 45 12 19 0 20 8 20 110 l0 110 -656 0 -655 0 148
-76z m1056 54 c36 -19 52 -40 49 -63 -2 -15 6 -30 22 -42 l25 -20 -46 -22
c-25 -12 -47 -21 -48 -19 -4 5 -45 157 -45 168 0 13 16 13 43 -2z"/>
<path d="M2576 1755 c4 -8 8 -15 10 -15 2 0 4 7 4 15 0 8 -4 15 -10 15 -5 0
-7 -7 -4 -15z"/>
<path d="M2510 1710 c0 -17 -8 -42 -17 -57 l-17 -26 -12 34 c-7 19 -13 26 -13
17 -1 -26 -70 -98 -92 -98 -16 0 -18 5 -13 25 8 32 -3 32 -38 -2 -24 -23 -39
-28 -106 -33 -69 -5 -73 -6 -39 -13 38 -8 99 -1 130 15 13 7 17 5 17 -8 0 -25
56 -10 102 26 20 16 38 25 40 19 5 -16 35 0 54 29 25 37 36 102 18 102 -9 0
-14 -11 -14 -30z"/>
</g>
</svg>
